# xmcd CD database file
#
# Track frame offsets:
#	150
#	6109
#	12139
#	20580
#	29880
#	42244
#	56664
#	61383
#	70132
#	82499
#	91575
#	101246
#	109418
#	112306
#	124838
#	148638
#
# Disc length: 4079 seconds
#
# Revision: 0
# Processed by: cddbd v1.5.1PL0 Copyright (c) Steve Scherf et al.
# Submitted via: CDex 1.50beta10
#
DISCID=ea0fed10
DTITLE=AudioMountain 梅澤雅俊 - Ys another OST
DYEAR=1998
DGENRE=Game
TTITLE0=Fiena
TTITLE1=Fortune of Love
TTITLE2=THE SYOTEN
TTITLE3=Tears of Silk
TTITLE4=Fast Step Towards Wars
TTITLE5=Place
TTITLE6=Horrors of Power
TTITLE7=Place of Destruction
TTITLE8=Beast of The Terror
TTITLE9=Tower of The Shade of Death
TTITLE10=Tha Vast Monument of The Dark
TTITLE11=Fine Battle
TTITLE12=Guest In Peace
TTITLE13=The Morning Blow
TTITLE14=Meet You Again
TTITLE15=(data track (including wav files of all audio tracks))
EXTD=YEAR: 1998
EXTT0=
EXTT1=
EXTT2=
EXTT3=
EXTT4=
EXTT5=
EXTT6=
EXTT7=
EXTT8=
EXTT9=
EXTT10=
EXTT11=
EXTT12=
EXTT13=
EXTT14=
EXTT15=
PLAYORDER=
